<?xml version="1.0" standalone="no"?>
<!DOCTYPE svg PUBLIC "-//W3C//DTD SVG 20010904//EN"
 "http://www.w3.org/TR/2001/REC-SVG-20010904/DTD/svg10.dtd">
<svg version="1.0" xmlns="http://www.w3.org/2000/svg"
 width="200.000000pt" height="200.000000pt" viewBox="0 0 200.000000 200.000000"
 preserveAspectRatio="xMidYMid meet">

<g transform="translate(0.000000,200.000000) scale(0.100000,-0.100000)"
fill="#000000" stroke="none">
<path d="M255 1833 c-44 -23 -65 -44 -86 -85 -18 -35 -19 -70 -19 -751 l0
-713 29 -46 c19 -30 44 -52 73 -67 l45 -21 715 2 714 3 41 27 c24 16 49 44 62
70 21 44 21 51 21 748 0 699 0 704 -21 748 -15 29 -37 54 -67 73 l-46 29 -715
0 c-634 -1 -719 -3 -746 -17z m398 -460 c14 -60 40 -171 58 -248 17 -77 35
-143 38 -147 4 -4 33 92 66 215 32 122 62 237 67 255 l9 32 103 0 104 0 19
-72 c11 -40 42 -155 68 -256 27 -100 51 -179 55 -175 3 5 16 51 28 103 12 52
38 164 58 248 l36 152 125 0 c114 0 124 -1 119 -17 -13 -45 -226 -836 -226
-839 0 -3 -55 -3 -122 -2 l-123 3 -65 235 c-79 283 -75 273 -85 236 -4 -16
-35 -128 -69 -250 l-61 -221 -122 -3 -122 -3 -11 43 c-7 24 -59 216 -116 426
-57 211 -104 386 -104 388 0 2 56 4 124 4 l124 0 25 -107z"/>
</g>
</svg>
